<svg width="32" height="32" viewBox="0 0 32 32" fill="none" xmlns="http://www.w3.org/2000/svg">
<path d="M9.18654 23.32L12.2532 26.3866M26.3865 19.9066C25.0845 21.2054 23.4526 22.124 21.6668 22.5634C19.8811 23.0028 18.0092 22.9463 16.2532 22.4L9.9732 28.6666C9.51987 29.1333 8.62654 29.4133 7.98654 29.32L5.07987 28.92C4.11987 28.7866 3.22654 27.88 3.07987 26.92L2.67987 24.0133C2.58654 23.3733 2.8932 22.48 3.3332 22.0266L9.59987 15.76C8.5332 12.2933 9.35987 8.35997 12.1065 5.62664C16.0399 1.6933 22.4265 1.6933 26.3732 5.62664C30.3199 9.55997 30.3199 15.9733 26.3865 19.9066V19.9066Z" stroke="#6D6D6D" stroke-width="1.5" stroke-miterlimit="10" stroke-linecap="round" stroke-linejoin="round"/>
<path d="M19.3335 14.6667C19.8639 14.6667 20.3726 14.456 20.7477 14.0809C21.1228 13.7058 21.3335 13.1971 21.3335 12.6667C21.3335 12.1363 21.1228 11.6275 20.7477 11.2525C20.3726 10.8774 19.8639 10.6667 19.3335 10.6667C18.8031 10.6667 18.2944 10.8774 17.9193 11.2525C17.5442 11.6275 17.3335 12.1363 17.3335 12.6667C17.3335 13.1971 17.5442 13.7058 17.9193 14.0809C18.2944 14.456 18.8031 14.6667 19.3335 14.6667Z" stroke="#6D6D6D" stroke-width="1.5" stroke-linecap="round" stroke-linejoin="round"/>
</svg>
