<svg width="30" height="35" viewBox="0 0 30 35" fill="none" xmlns="http://www.w3.org/2000/svg">
<path d="M29 34C29 27.6145 22.7253 22.45 15 22.45C7.27474 22.45 1 27.6145 1 34M15 17.5C17.1613 17.5 19.234 16.6308 20.7622 15.0836C22.2905 13.5365 23.149 11.438 23.149 9.25C23.149 7.06196 22.2905 4.96354 20.7622 3.41637C19.234 1.86919 17.1613 1 15 1C12.8387 1 10.766 1.86919 9.23778 3.41637C7.70954 4.96354 6.85099 7.06196 6.85099 9.25C6.85099 11.438 7.70954 13.5365 9.23778 15.0836C10.766 16.6308 12.8387 17.5 15 17.5V17.5Z" stroke="#6D6D6D" stroke-width="1.5" stroke-linecap="round" stroke-linejoin="round"/>
</svg>
